<svg preserveAspectRatio="none" width="100%" height="100%" overflow="visible" style="display: block;" viewBox="0 0 35.4358 30.1962" fill="none" xmlns="http://www.w3.org/2000/svg">
<g id="Group">
<path id="Vector" d="M1.02999 17.9375C0.861976 18.1053 0.728688 18.3046 0.637748 18.5239C0.546808 18.7432 0.5 18.9784 0.5 19.2158C0.5 19.4533 0.546808 19.6884 0.637748 19.9077C0.728688 20.1271 0.861976 20.3264 1.02999 20.4942L9.70166 29.1675C10.4083 29.8725 11.5517 29.8725 12.2583 29.1675L34.4067 7.01749C34.7455 6.67867 34.9358 6.21914 34.9358 5.73999C34.9358 5.26083 34.7455 4.8013 34.4067 4.46249L30.9733 1.02915C30.6345 0.690342 30.175 0.5 29.6958 0.5C29.2167 0.5 28.7571 0.690342 28.4183 1.02915L10.98 18.4675L7.01832 14.5042C6.67922 14.1652 6.21942 13.9749 5.73999 13.9749C5.26056 13.9749 4.80075 14.1652 4.46165 14.5042L1.02999 17.9375Z" fill="var(--fill-0, #78EB7B)"/>
<path id="Vector_2" d="M10.98 23.7092L32.3183 2.37249L30.97 1.02415C30.6309 0.685241 30.1711 0.494857 29.6917 0.494857C29.2122 0.494857 28.7524 0.685241 28.4133 1.02415L10.98 18.4675L7.01832 14.5042C6.85053 14.3361 6.65126 14.2029 6.43191 14.1119C6.21256 14.021 5.97744 13.9742 5.73999 13.9742C5.50254 13.9742 5.26741 14.021 5.04807 14.1119C4.82872 14.2029 4.62945 14.3361 4.46165 14.5042L3.11332 15.8525L10.98 23.7092Z" fill="var(--fill-0, #C9F7CA)"/>
<path id="Vector_3" d="M1.02999 17.9375C0.861976 18.1053 0.728688 18.3046 0.637748 18.5239C0.546808 18.7432 0.5 18.9784 0.5 19.2158C0.5 19.4533 0.546808 19.6884 0.637748 19.9077C0.728688 20.1271 0.861976 20.3264 1.02999 20.4942L9.70166 29.1675C10.4083 29.8725 11.5517 29.8725 12.2583 29.1675L34.4067 7.01749C34.7455 6.67867 34.9358 6.21914 34.9358 5.73999C34.9358 5.26083 34.7455 4.8013 34.4067 4.46249L30.9733 1.02915C30.6345 0.690342 30.175 0.5 29.6958 0.5C29.2167 0.5 28.7571 0.690342 28.4183 1.02915L10.98 18.4675L7.01832 14.5042C6.67922 14.1652 6.21942 13.9749 5.73999 13.9749C5.26056 13.9749 4.80075 14.1652 4.46165 14.5042L1.02999 17.9375Z" stroke="var(--stroke-0, #191919)" stroke-linecap="round" stroke-linejoin="round"/>
</g>
</svg>
